.
..............................Site Info...........................

 -   http://www.scenetime.com  *_*    

Scenetime .Always on time . friendly online private torrent community ..

     We care to share . Join us on  http://www.scenetime.com 

    Be the first to get new release at  http://www.scenetime.com

        Seed back for speed


...................................NFO:.................................................[center][img]http://lookpic.com/O/i2/902/buUgjyYl.jpeg[/img][/center]
 
http://www.imdb.com/title/tt1484954/

[b]Death.and.Cremation.2010.DVDRip.XviD-INFERNO


Format                                   : AVI
Format/Info                              : Audio Video Interleave
File size                                : 1.17 GiB
Duration                                 : 1h 26mn
Overall bit rate                         : 1 925 Kbps
Writing library                          : VirtualDub build 32842/release

Video
ID                                       : 0
Format                                   : MPEG-4 Visual
Format profile                           : Advanced Simple@L5
Format settings, BVOP                    : 2
Format settings, QPel                    : No
Format settings, GMC                     : No warppoints
Format settings, Matrix                  : Default (MPEG)
Muxing mode                              : Packed bitstream
Codec ID                                 : XVID
Codec ID/Hint                            : XviD
Duration                                 : 1h 26mn
Bit rate                                 : 1 788 Kbps
Width                                    : 720 pixels
Height                                   : 304 pixels
Display aspect ratio                     : 2.35:1
Frame rate                               : 23.976 fps
Color space                              : YUV
Chroma subsampling                       : 4:2:0
Bit depth                                : 8 bits
Scan type                                : Progressive
Compression mode                         : Lossy
Bits/(Pixel*Frame)                       : 0.341
Stream size                              : 1.09 GiB (93%)
Writing library                          : XviD 64

Audio
ID                                       : 1
Format                                   : AC-3
Format/Info                              : Audio Coding 3
Mode extension                           : CM (complete main)
Format settings, Endianness              : Big
Codec ID                                 : 2000
Duration                                 : 1h 26mn
Bit rate mode                            : Constant
Bit rate                                 : 128 Kbps
Channel(s)                               : 2 channels
Channel positions                        : Front: L R
Sampling rate                            : 48.0 KHz
Bit depth                                : 16 bits
Compression mode                         : Lossy
Stream size                              : 79.4 MiB (7%)
Alignment                                : Split accross interleaves
Interleave, duration                     : 42 ms (1.00 video frame)
Interleave, preload duration             : 500 ms


SCREENS:[/b]

[center][img]http://lookpic.com/O/i2/799/wIW2n6qE.png[/img][/center]
[center][img]http://lookpic.com/O/i2/509/91xnTMZw.png[/img][/center]
[center][img]http://lookpic.com/O/i2/1577/Gg2h99Jf.png[/img][/center]
[center][img]http://lookpic.com/O/i2/577/QAH5mOCC.png[/img][/center]
[center][img]http://www.myimg.us/images/02.20.12/24265.gif[/img][/center]